# xmcd CD database file
#
# Track frame offsets:
#	150
#	23642
#	49658
#	70444
#	91798
#	118552
#	150579
#	176180
#	199843
#	227645
#	256246
#	278875
#	305211
#
# Disc length: 4386 seconds
#
# Revision: 0
# Processed by: cddbd v1.5.2PL0 Copyright (c) Steve Scherf et al.
# Submitted via: CDex 1.51
#
DISCID=b011200d
DTITLE=John Adorney - The Best of John Adorney
DYEAR=2006
DGENRE=New Age
TTITLE0=Neverending
TTITLE1=Always
TTITLE2=The Gift
TTITLE3=Celebration
TTITLE4=When Will I See You Again
TTITLE5=Dance Of The Moon and Stars
TTITLE6=The Crossing
TTITLE7=Aphelion
TTITLE8=The Other Shore
TTITLE9=Swept Away
TTITLE10=Whisper
TTITLE11=The Potter's Gift
TTITLE12=Free
EXTD=YEAR: 2006
EXTT0=
EXTT1=
EXTT2=
EXTT3=
EXTT4=
EXTT5=
EXTT6=
EXTT7=
EXTT8=
EXTT9=
EXTT10=
EXTT11=
EXTT12=
PLAYORDER=
